<svg width="17" height="16" viewBox="0 0 17 16" fill="none" xmlns="http://www.w3.org/2000/svg">
<path fill-rule="evenodd" clip-rule="evenodd" d="M14.2971 2.31513C14.2971 3.59374 13.2606 4.63026 11.982 4.63026C10.7034 4.63026 9.66687 3.59374 9.66687 2.31513C9.66687 1.03652 10.7034 0 11.982 0C13.2606 0 14.2971 1.03652 14.2971 2.31513ZM4.63026 7.39887C4.63026 8.67748 3.59374 9.714 2.31513 9.714C1.03652 9.714 0 8.67748 0 7.39887C0 6.12026 1.03652 5.08374 2.31513 5.08374C3.59374 5.08374 4.63026 6.12026 4.63026 7.39887ZM7.55012 13.371C5.87756 13.012 4.47903 11.9442 3.69472 10.4323C3.08051 10.7157 2.38124 10.8008 1.71033 10.6779C2.66473 13.012 4.67747 14.7034 7.14379 15.2326C7.68241 15.346 8.23993 15.4027 8.78801 15.4027C8.36278 14.8452 8.12654 14.1648 8.10764 13.4655L8.03418 13.454L8.03413 13.454C7.87686 13.4293 7.71349 13.4037 7.55012 13.371ZM13.768 13.3804C13.768 14.659 12.7314 15.6956 11.4528 15.6956C10.1742 15.6956 9.1377 14.659 9.1377 13.3804C9.1377 12.1018 10.1742 11.0653 11.4528 11.0653C12.7314 11.0653 13.768 12.1018 13.768 13.3804ZM14.6844 12.53C15.4026 11.6228 15.9129 10.5456 16.1586 9.40219C16.5838 7.40834 16.1869 5.32 15.0624 3.62854C14.7978 4.26166 14.3443 4.79083 13.7584 5.15936C14.3821 6.34055 14.5711 7.70128 14.297 9.01476C14.1553 9.65733 13.919 10.2621 13.5789 10.8102C14.1175 11.2448 14.5049 11.8496 14.6844 12.53ZM2.21832 4.06824C2.19001 4.07051 2.16275 4.07269 2.1355 4.07269C3.58127 1.52133 6.41612 0.0188592 9.32657 0.245647C9.01474 0.642526 8.7974 1.10555 8.69345 1.60637C8.66511 1.77647 8.63676 1.94656 8.62731 2.1261C6.80355 2.1639 5.12154 3.0616 4.07265 4.56407C3.75136 4.36563 3.39228 4.22389 3.0143 4.13884C2.78751 4.09159 2.55128 4.06324 2.31504 4.06324C2.28069 4.06324 2.24889 4.06579 2.21832 4.06824Z" fill="white"/>
</svg>
